<?xml version="1.0" encoding="UTF-8"?>
<svg id="Capa_1" xmlns="http://www.w3.org/2000/svg" version="1.1" xmlns:xlink="http://www.w3.org/1999/xlink" viewBox="0 0 240 65.6">
  <!-- Generator: Adobe Illustrator 29.5.1, SVG Export Plug-In . SVG Version: 2.1.0 Build 141)  -->
  <defs>
    <style>
      .st0 {
        fill: #fff;
      }

      .st1 {
        fill: url(#Degradado_sin_nombre);
      }

      .st2 {
        fill: #1597ff;
      }
    </style>
    <linearGradient id="Degradado_sin_nombre" data-name="Degradado sin nombre" x1="-149.6" y1="-136.6" x2="-119" y2="-83.6" gradientTransform="translate(138.8 167.1) rotate(90) scale(1 -1)" gradientUnits="userSpaceOnUse">
      <stop offset=".2" stop-color="#2d31e7"/>
      <stop offset="1" stop-color="#15d4ff"/>
    </linearGradient>
  </defs>
  <path class="st1" d="M32.8,40.7L15.1,23c-.4-.4-.4-.9,0-1.3L32.8,4c1.5-1.5.4-4-1.6-4h-9.4c-.6,0-1.2.2-1.6.7L1,19.8c-1.4,1.4-1.4,3.7,0,5.1l19.1,19.1c.4.4,1,.7,1.6.7h9.4c2.1,0,3.1-2.5,1.7-4h0ZM56.4,40.8l-19.1-19.1c-.4-.4-1-.7-1.7-.7h-9.4c-2.1,0-3.1,2.5-1.6,4l17.7,17.7c.3.3.3.9,0,1.3l-17.7,17.7c-1.5,1.5-.4,4,1.6,4h9.4c.6,0,1.2-.2,1.7-.7l19.1-19.1c1.4-1.4,1.4-3.7,0-5.1h0Z"/>
  <g>
    <g>
      <path class="st2" d="M189.2,57.2c0-4.2,2.8-6.5,5.9-6.5s2.8.6,3.6,1.5l-1,1.3c-.7-.6-1.5-1-2.5-1-2.2,0-3.9,1.9-3.9,4.8s1.5,4.7,3.8,4.7,2.2-.5,2.9-1.2l.9,1.3c-1.1,1-2.5,1.6-4,1.6-3.3,0-5.8-2.4-5.8-6.5h0Z"/>
      <path class="st2" d="M200.3,57.2c0-4.2,2.7-6.5,5.7-6.5s5.8,2.4,5.8,6.5-2.7,6.5-5.8,6.5-5.7-2.4-5.7-6.5ZM209.6,57.2c0-2.8-1.4-4.8-3.6-4.8s-3.5,1.9-3.5,4.8,1.4,4.7,3.5,4.7,3.6-1.9,3.6-4.7Z"/>
      <path class="st2" d="M214.1,57.2c0-4,2.5-6.5,5.4-6.5s2.4.5,3.5,1.4v-2.1c-.1,0-.1-4.8-.1-4.8h2.1v18.1h-1.7l-.2-1.5h0c-1,.9-2.3,1.8-3.7,1.8-3.1,0-5.1-2.3-5.1-6.5ZM222.8,60.2v-6.5c-1-.9-2-1.3-3-1.3-2,0-3.5,1.9-3.5,4.7s1.2,4.7,3.4,4.7,2.1-.6,3.1-1.7h0Z"/>
      <path class="st2" d="M228.2,57.2c0-4,2.7-6.5,5.6-6.5s5,2.2,5,5.8,0,.8-.1,1.2h-8.3c.2,2.5,1.7,4.2,4.1,4.2s2.2-.3,3.1-.9l.7,1.3c-1.1.8-2.4,1.3-4.1,1.3-3.3,0-5.9-2.4-5.9-6.5h0ZM236.8,56.1c0-2.4-1.1-3.7-3-3.7s-3.3,1.4-3.5,3.7h6.5Z"/>
    </g>
    <g>
      <path class="st0" d="M82,25.8c0-8.3,5.1-13.3,10.7-13.3s4.6,1.1,6.6,2.8l-.3-4.1V2.1h6.1v36.2h-4.9l-.5-2.7h-.2c-1.8,1.8-4.4,3.3-7.1,3.3-6.3,0-10.4-4.9-10.4-13.2ZM99,31.2v-11.6c-1.7-1.5-3.3-2-5-2-3.1,0-5.8,3-5.8,8.2s2.1,8.3,5.7,8.3,3.5-.8,5.1-2.8Z"/>
      <path class="st0" d="M110.9,25.7c0-8.2,5.8-13.2,11.7-13.2s10.5,4.9,10.5,12-.1,2.2-.3,3.1h-15.9c.6,4.2,3.3,6.7,7.3,6.7s4.1-.6,5.8-1.7l2.1,3.8c-2.4,1.7-5.4,2.7-8.7,2.7-7,0-12.4-4.8-12.4-13.2h0ZM127.7,23.1c0-3.7-1.8-5.9-5-5.9s-5.3,2-5.8,5.9h10.9Z"/>
      <path class="st0" d="M135.5,13.1h6.2l3.9,13c.7,2.5,1.4,5.1,2.2,7.6h.2c.7-2.6,1.4-5.1,2.1-7.6l3.9-13h5.9l-8.6,25.2h-7s-8.8-25.2-8.8-25.2Z"/>
      <path class="st0" d="M162.2,25.7c0-8.2,5.8-13.2,11.6-13.2s10.5,4.9,10.5,12-.1,2.2-.3,3.1h-15.9c.6,4.2,3.3,6.7,7.3,6.7s4.1-.6,5.9-1.7l2.1,3.8c-2.4,1.7-5.4,2.7-8.7,2.7-7,0-12.4-4.8-12.4-13.2h0ZM179,23.1c0-3.7-1.8-5.9-5-5.9s-5.3,2-5.9,5.9h10.9Z"/>
      <path class="st0" d="M189.9,13.1h5l.5,3.4h.1c2.2-2.2,4.6-4.1,7.8-4.1s5.8,1.7,7,4.5c2.4-2.6,4.9-4.5,8.1-4.5,5.3,0,7.8,3.7,7.8,10.1v15.8h-6.1v-15c0-4.1-1.2-5.6-3.8-5.6s-3.3,1-5.2,3.1v17.6h-6.1v-15c0-4.1-1.2-5.6-3.8-5.6s-3.3,1-5.2,3.1v17.6h-6.1V13.1h0Z"/>
      <path class="st0" d="M232.7,5.3c0-2,1.5-3.4,3.6-3.4s3.6,1.4,3.6,3.4-1.5,3.4-3.6,3.4-3.6-1.4-3.6-3.4ZM233.3,13.1h6.1v25.2h-6.1V13.1Z"/>
    </g>
  </g>
</svg>